<svg width="45" height="45" viewBox="0 0 45 45" fill="none" xmlns="http://www.w3.org/2000/svg">
<path d="M0 22.0109C0 9.8546 9.8546 0 22.0109 0V0C34.1671 0 44.0217 9.8546 44.0217 22.0109V22.9891C44.0217 35.1454 34.1671 45 22.0109 45V45C9.8546 45 0 35.1454 0 22.9891V22.0109Z" fill="#3B85A4"/>
<path fill-rule="evenodd" clip-rule="evenodd" d="M25.5305 13.1686C24.5147 13.3231 23.504 13.5095 22.5 13.7275C21.4959 13.5095 20.4853 13.3231 19.4695 13.1686C20.3254 13.5055 21.1951 13.909 22.1129 14.3525C22.2289 14.4086 22.3267 14.4963 22.3952 14.6055C22.4636 14.7147 22.5 14.841 22.5 14.9698C22.5 14.7065 22.6499 14.4666 22.887 14.3525C23.8049 13.909 24.6745 13.5048 25.5305 13.1686V13.1686Z" fill="#FDF5E6"/>
<path fill-rule="evenodd" clip-rule="evenodd" d="M22.5 30.3381C22.5 30.7355 22.1748 31.0256 21.8125 31.0304V31.1659C17.5026 30.4364 14.4576 30.3904 10.125 31.1508V14.9601C10.5814 14.8556 11.0398 14.76 11.5 14.6734V13.2758C10.7946 13.4023 10.0563 13.559 9.27044 13.7488C9.12181 13.7849 8.98966 13.8699 8.89526 13.9903C8.80085 14.1106 8.74969 14.2592 8.75 14.4122V31.9703C8.75 32.4054 9.15081 32.7299 9.57775 32.6488C14.4425 31.7207 17.5012 31.7757 22.368 32.6591C22.4553 32.6751 22.5447 32.6751 22.632 32.6591C27.4988 31.7757 30.5575 31.7207 35.4223 32.6488C35.5226 32.6682 35.6259 32.6653 35.725 32.6402C35.824 32.6151 35.9163 32.5685 35.9954 32.5038C36.0744 32.439 36.1381 32.3576 36.1822 32.2654C36.2262 32.1732 36.2493 32.0724 36.25 31.9703V14.4129C36.2505 14.2598 36.1994 14.111 36.105 13.9906C36.0105 13.8701 35.8783 13.7849 35.7296 13.7488C34.9912 13.569 34.2477 13.4113 33.5 13.2758V14.6734C33.9428 14.7559 34.3993 14.8522 34.875 14.9601V31.1508C30.5424 30.3904 27.4974 30.4358 23.1875 31.1659V31.0304C22.8252 31.0249 22.5 30.7348 22.5 30.3381V30.3381Z" fill="#FDF5E6"/>
<path d="M22.1946 14.1832C22.3424 14.2548 22.467 14.3665 22.5542 14.5056C22.6414 14.6449 22.6876 14.8059 22.6875 14.9701V14.9705V30.3375C22.6875 30.9827 22.0133 31.405 21.4281 31.1348M22.1946 14.1832L21.4281 31.1348M22.1946 14.1832C22.1945 14.1832 22.1944 14.1831 22.1943 14.1831L22.4117 13.7335L22.1946 14.1832ZM21.4281 31.1348C21.4282 31.1348 21.4282 31.1349 21.4283 31.1349L21.2188 31.588L21.4281 31.1348ZM21.2185 31.5887C18.2072 30.1966 15.7529 29.4905 12.4769 30.092L11.8259 11.8967C15.9639 10.8372 18.9394 12.0562 22.412 13.733C22.6445 13.8455 22.8407 14.0212 22.9778 14.2401C23.115 14.459 23.1877 14.7122 23.1875 14.9705V30.3375C23.1875 31.3598 22.1239 32.0067 21.2185 31.5887Z" stroke="#FDF5E6"/>
<path fill-rule="evenodd" clip-rule="evenodd" d="M32.8125 13.2235V28.7253C32.8112 28.7276 32.8093 28.7295 32.807 28.7308C32.802 28.7348 32.7963 28.7376 32.7901 28.7392C32.7839 28.7407 32.7775 28.7409 32.7712 28.7397C29.1 28.066 26.3417 28.891 23.2047 30.3416C23.2029 30.3423 23.2011 30.3428 23.1992 30.343H23.1978C23.1949 30.3427 23.1921 30.3418 23.1896 30.3402L23.1875 30.3375V14.9698C26.6113 13.317 29.1921 12.3023 32.8125 13.2235V13.2235ZM33.1741 11.8967C29.0361 10.8372 26.0606 12.0562 22.588 13.733C22.3556 13.8456 22.1595 14.0214 22.0224 14.2403C21.8852 14.4591 21.8125 14.7122 21.8125 14.9705V30.3389C21.8125 31.3612 22.8761 32.0081 23.7815 31.5894C26.7928 30.1972 29.2471 29.4912 32.5231 30.0927C33.3549 30.2454 34.1875 29.6259 34.1875 28.7253V13.2132C34.1888 12.9124 34.0899 12.6197 33.9064 12.3813C33.7229 12.1429 33.4653 11.9724 33.1741 11.8967V11.8967Z" fill="#FDF5E6"/>
<path fill-rule="evenodd" clip-rule="evenodd" d="M13.5694 25.9396C16.0925 25.9134 17.4998 26.1678 20.1776 27.2616L20.6974 25.9884C17.86 24.8299 16.2712 24.5364 13.5556 24.5646L13.5694 25.9396ZM13.5694 23.1896C16.0925 23.1634 17.4998 23.4178 20.1776 24.5116L20.6974 23.2384C17.86 22.0799 16.2712 21.7864 13.5556 21.8146L13.5694 23.1896ZM13.5694 20.4396C16.0925 20.4134 17.4998 20.6678 20.1776 21.7616L20.6974 20.4884C17.86 19.3299 16.2712 19.0364 13.5556 19.0646L13.5694 20.4396Z" fill="#FDF5E6"/>
<path fill-rule="evenodd" clip-rule="evenodd" d="M15.2812 14.9375V17H13.9062V14.9375H15.2812ZM17.6875 15.625V17.6875H16.3125V15.625H17.6875ZM20.0938 16.3125V18.375H18.7188V16.3125H20.0938Z" fill="#FDF5E6"/>
<path fill-rule="evenodd" clip-rule="evenodd" d="M31.4306 25.9396C28.9075 25.9134 27.5002 26.1678 24.8224 27.2616L24.3026 25.9884C27.1399 24.8299 28.7287 24.5364 31.4444 24.5646L31.4306 25.9396V25.9396ZM31.4306 23.1896C28.9075 23.1634 27.5002 23.4178 24.8224 24.5116L24.3026 23.2384C27.1399 22.0799 28.7287 21.7864 31.4444 21.8146L31.4306 23.1896V23.1896ZM31.4306 20.4396C28.9075 20.4134 27.5002 20.6678 24.8224 21.7616L24.3026 20.4884C27.1399 19.3299 28.7287 19.0364 31.4444 19.0646L31.4306 20.4396V20.4396Z" fill="#FDF5E6"/>
<path fill-rule="evenodd" clip-rule="evenodd" d="M29.7188 14.9375V17H31.0938V14.9375H29.7188Z" fill="#FDF5E6"/>
<path fill-rule="evenodd" clip-rule="evenodd" d="M27.3125 15.625V17.6875H28.6875V15.625H27.3125ZM24.9062 16.3125V18.375H26.2812V16.3125H24.9062Z" fill="#FDF5E6"/>
</svg>
