<svg width="45" height="45" viewBox="0 0 45 45" fill="none" xmlns="http://www.w3.org/2000/svg">
<path d="M0 22.0109C0 9.8546 9.8546 0 22.0109 0V0C34.1671 0 44.0217 9.8546 44.0217 22.0109V22.9891C44.0217 35.1454 34.1671 45 22.0109 45V45C9.8546 45 0 35.1454 0 22.9891V22.0109Z" fill="#3B85A4"/>
<path d="M32.6667 32.5066V35.3333L30.2667 33.7733L23.88 21.7733C24.76 21.4933 25.56 21.0399 26.2533 20.4399L32.6667 32.5066Z" fill="#FDF5E6"/>
<path d="M26 15.3333C26 16.3942 25.5786 17.4116 24.8284 18.1617C24.0783 18.9119 23.0608 19.3333 22 19.3333H21.4133L13.7333 33.7733L11.3333 35.3333V32.5066L19.0533 18C17.5866 16.36 17.72 13.8266 19.3733 12.3466C20.0933 11.7066 21.0266 11.3333 22 11.3333V8.66663C22.3536 8.66663 22.6927 8.8071 22.9428 9.05715C23.1928 9.3072 23.3333 9.64634 23.3333 9.99996V11.5733C24.9333 12.1333 26 13.64 26 15.3333ZM23.3333 15.3333C23.3333 14.9797 23.1928 14.6405 22.9428 14.3905C22.6927 14.1404 22.3536 14 22 14C21.6464 14 21.3072 14.1404 21.0572 14.3905C20.8071 14.6405 20.6666 14.9797 20.6666 15.3333C20.6666 15.6869 20.8071 16.0261 21.0572 16.2761C21.3072 16.5261 21.6464 16.6666 22 16.6666C22.3536 16.6666 22.6927 16.5261 22.9428 16.2761C23.1928 16.0261 23.3333 15.6869 23.3333 15.3333Z" fill="#FDF5E6"/>
</svg>
