<svg width="45" height="45" viewBox="0 0 45 45" fill="none" xmlns="http://www.w3.org/2000/svg">
<path d="M0 22.0109C0 9.8546 9.8546 0 22.0109 0V0C34.1671 0 44.0217 9.8546 44.0217 22.0109V22.9891C44.0217 35.1454 34.1671 45 22.0109 45V45C9.8546 45 0 35.1454 0 22.9891V22.0109Z" fill="#3B85A4"/>
<path d="M27.1563 16.1406V14.7344C27.1563 14.6055 27.0508 14.5 26.9219 14.5H15.6719C15.543 14.5 15.4375 14.6055 15.4375 14.7344V16.1406C15.4375 16.2695 15.543 16.375 15.6719 16.375H26.9219C27.0508 16.375 27.1563 16.2695 27.1563 16.1406ZM15.6719 18.7188C15.543 18.7188 15.4375 18.8242 15.4375 18.9531V20.3594C15.4375 20.4883 15.543 20.5938 15.6719 20.5938H21.0625C21.1914 20.5938 21.2969 20.4883 21.2969 20.3594V18.9531C21.2969 18.8242 21.1914 18.7188 21.0625 18.7188H15.6719ZM19.8906 31.9609H13.0938V11.3359H29.5V21.4141C29.5 21.543 29.6055 21.6484 29.7344 21.6484H31.375C31.5039 21.6484 31.6094 21.543 31.6094 21.4141V10.1641C31.6094 9.64551 31.1904 9.22656 30.6719 9.22656H11.9219C11.4033 9.22656 10.9844 9.64551 10.9844 10.1641V33.1328C10.9844 33.6514 11.4033 34.0703 11.9219 34.0703H19.8906C20.0195 34.0703 20.125 33.9648 20.125 33.8359V32.1953C20.125 32.0664 20.0195 31.9609 19.8906 31.9609ZM32.9482 33.4697L30.2148 30.7363C30.8682 29.8721 31.2578 28.7939 31.2578 27.625C31.2578 24.7773 28.9492 22.4688 26.1016 22.4688C23.2539 22.4688 20.9453 24.7773 20.9453 27.625C20.9453 30.4727 23.2539 32.7813 26.1016 32.7813C27.1504 32.7813 28.123 32.4678 28.9375 31.9316L31.7119 34.7061C31.7588 34.7529 31.8174 34.7734 31.876 34.7734C31.9346 34.7734 31.9961 34.75 32.04 34.7061L32.9482 33.7979C32.9699 33.7763 32.987 33.7508 32.9987 33.7226C33.0104 33.6945 33.0164 33.6643 33.0164 33.6338C33.0164 33.6033 33.0104 33.5731 32.9987 33.545C32.987 33.5168 32.9699 33.4912 32.9482 33.4697V33.4697Z" fill="#FDF5E6"/>
<path d="M26.1016 30.9062C24.2881 30.9062 22.8203 29.4385 22.8203 27.625C22.8203 25.8115 24.2881 24.3438 26.1016 24.3438C27.915 24.3438 29.3828 25.8115 29.3828 27.625C29.3828 29.4385 27.915 30.9062 26.1016 30.9062Z" fill="#FDF5E6"/>
</svg>
