<svg width="45" height="45" viewBox="0 0 45 45" fill="none" xmlns="http://www.w3.org/2000/svg">
<path d="M0 22.0109C0 9.8546 9.8546 0 22.0109 0V0C34.1671 0 44.0217 9.8546 44.0217 22.0109V22.9891C44.0217 35.1454 34.1671 45 22.0109 45V45C9.8546 45 0 35.1454 0 22.9891V22.0109Z" fill="#3B85A4"/>
<path fill-rule="evenodd" clip-rule="evenodd" d="M13.6165 30.206C13.687 30.2084 13.7695 30.2099 13.8655 30.2099C14.6305 30.2099 15.34 30.3887 15.9392 30.7973C16.5407 31.2074 16.9105 31.7654 17.1332 32.312C17.4482 33.0828 17.5067 33.9477 17.5172 34.5713C17.6477 34.6083 17.8285 34.6484 18.0707 34.6838C19.0502 34.8303 20.4205 34.8334 22 34.8334C23.5795 34.8334 24.9497 34.8295 25.93 34.6838C26.1163 34.6578 26.3009 34.6203 26.4827 34.5713C26.4932 33.9469 26.5525 33.0836 26.8667 32.312C27.0895 31.7654 27.4592 31.2074 28.0607 30.7973C28.6607 30.3887 29.3695 30.2099 30.1345 30.2099C30.2305 30.2099 30.313 30.2084 30.3835 30.206C30.3835 30.1359 30.3835 30.0565 30.382 29.9671C30.3797 29.8353 30.3745 29.6742 30.37 29.4915C30.3595 29.1068 30.346 28.6266 30.346 28.1194C30.346 26.4629 30.9385 25.504 31.3697 24.8048C31.4605 24.6584 31.5437 24.5235 31.6135 24.3963C31.9945 23.6948 32.5 22.4869 32.5 19.2039C32.5 16.1854 31.24 13.9839 29.3402 12.4954C27.4 10.9745 24.7375 10.1667 22 10.1667C19.2625 10.1667 16.6 10.9745 14.6597 12.4954C12.76 13.9839 11.5 16.1854 11.5 19.2039C11.5 22.4869 12.0055 23.6948 12.3865 24.3955C12.4555 24.5235 12.5395 24.6584 12.6302 24.8056C13.0615 25.504 13.654 26.4629 13.654 28.1202C13.654 28.6266 13.6405 29.1068 13.63 29.4915C13.6247 29.6742 13.6202 29.8353 13.618 29.9671C13.6165 30.0565 13.6165 30.1359 13.6165 30.206ZM12.1315 29.4051C12.079 31.2906 12.0655 31.7516 13.8655 31.7516C16.0195 31.7516 16.0195 33.7326 16.0195 35.0538C16.0195 36.375 18.9235 36.375 22 36.375C25.0765 36.375 27.9805 36.375 27.9805 35.0538C27.9805 33.7334 27.9805 31.7516 30.1345 31.7516C31.9345 31.7516 31.9217 31.2906 31.8685 29.4051C31.8547 28.9767 31.8472 28.5481 31.846 28.1194C31.846 26.9439 32.1835 26.3881 32.5907 25.7167C33.2132 24.6915 34 23.395 34 19.2032C34 5.09846 10 5.09846 10 19.2032C10 23.395 10.7867 24.6915 11.4092 25.7167C11.8165 26.3881 12.154 26.9439 12.154 28.1194C12.154 28.6081 12.142 29.0344 12.1315 29.4051V29.4051Z" fill="#FDF5E6"/>
<path fill-rule="evenodd" clip-rule="evenodd" d="M30.253 25.5772C30.2552 27.7062 28.7455 29.4329 26.881 29.4344C25.0172 29.436 23.5052 27.7116 23.503 25.5833C23.5015 23.4551 25.0112 21.7276 26.875 21.7261C28.7395 21.7245 30.2515 23.4489 30.253 25.5772V25.5772ZM28.753 25.5787C28.7545 27.0125 27.7705 27.892 26.8802 27.8927C25.9892 27.8935 25.0045 27.0163 25.003 25.5818C25.0022 24.148 25.9855 23.2693 26.8765 23.2677C27.7675 23.2677 28.7515 24.145 28.753 25.5787Z" fill="#FDF5E6"/>
<path fill-rule="evenodd" clip-rule="evenodd" d="M20.5008 25.5833C20.5008 27.7116 18.9903 29.4375 17.1258 29.4375C15.262 29.4375 13.7508 27.7116 13.7508 25.5833C13.7508 23.455 15.2613 21.7291 17.1258 21.7291C18.9895 21.7291 20.5008 23.455 20.5008 25.5833ZM19.0008 25.5833C19.0008 27.017 18.0168 27.8958 17.1258 27.8958C16.2355 27.8958 15.2508 27.017 15.2508 25.5833C15.2508 24.1495 16.2348 23.2708 17.1258 23.2708C18.016 23.2708 19.0008 24.1495 19.0008 25.5833ZM21.9775 29.4436L21.991 29.4375L22.0045 29.4436C22.1898 29.5276 24.241 30.4927 24.241 31.9627C24.241 32.6025 23.806 33.1991 23.1918 33.2816C23.1435 33.2882 23.0949 33.2915 23.0463 33.2916C22.5663 33.2916 22.2108 33.0049 21.991 32.5979C21.7713 33.0049 21.4158 33.2916 20.9365 33.2916C20.887 33.2916 20.8383 33.2885 20.791 33.2816C20.176 33.1991 19.741 32.6033 19.741 31.9627C19.741 30.5544 21.79 29.5346 21.9775 29.4436V29.4436ZM20.671 31.864L20.6703 31.8656V31.8648L20.671 31.864ZM23.311 31.864L23.3125 31.8656L23.3118 31.8648L23.311 31.864Z" fill="#FDF5E6"/>
</svg>
